<svg width="71" height="71" viewBox="0 0 71 71" fill="none" xmlns="http://www.w3.org/2000/svg">
<g clip-path="url(#clip0_50_2047)">
<path d="M49.0799 47.5801H22.8299C22.6499 47.5801 22.5099 47.6301 22.4199 47.7201C22.3299 47.8101 22.2799 47.9501 22.2799 48.1301C22.2799 48.3101 22.3299 48.4501 22.4199 48.5401C22.5099 48.6301 22.6499 48.6801 22.8299 48.6801H49.0799C49.2599 48.6801 49.3999 48.6301 49.4899 48.5401C49.5799 48.4501 49.6299 48.3101 49.6299 48.1301C49.6299 47.9501 49.5799 47.8101 49.4899 47.7201C49.3999 47.6301 49.2599 47.5801 49.0799 47.5801Z" fill="#B2ADA6"/>
<path d="M45.63 29.7001C44.38 28.4501 42.93 27.4801 41.29 26.7901C40.24 26.3301 39.14 26.0401 38.02 25.8701C38.46 25.3701 38.69 24.7701 38.69 24.0601C38.69 23.2901 38.43 22.6401 37.9 22.1101C37.38 21.5901 36.73 21.3201 35.95 21.3201C35.17 21.3201 34.53 21.5801 34 22.1101C33.48 22.6301 33.21 23.2801 33.21 24.0601C33.21 24.7701 33.44 25.3701 33.88 25.8701C32.76 26.0401 31.66 26.3401 30.61 26.7901C28.97 27.4701 27.52 28.4401 26.27 29.7001C25.02 30.9501 24.05 32.4001 23.36 34.0401C22.63 35.7301 22.27 37.5001 22.27 39.3701V41.5601C22.27 41.7401 22.32 41.8801 22.41 41.9701C22.5 42.0601 22.64 42.1101 22.82 42.1101H49.07C49.25 42.1101 49.39 42.0601 49.48 41.9701C49.57 41.8801 49.62 41.7401 49.62 41.5601V39.3701C49.62 37.5001 49.26 35.7201 48.53 34.0401C47.85 32.4001 46.88 30.9501 45.62 29.7001H45.63ZM34.79 22.9001C35.11 22.5801 35.5 22.4201 35.95 22.4201C36.4 22.4201 36.79 22.5801 37.11 22.9001C37.43 23.2201 37.59 23.6101 37.59 24.0601C37.59 24.5101 37.43 24.9001 37.11 25.2201C36.79 25.5401 36.4 25.7001 35.95 25.7001C35.5 25.7001 35.11 25.5401 34.79 25.2201C34.47 24.9001 34.31 24.5101 34.31 24.0601C34.31 23.6101 34.47 23.2201 34.79 22.9001ZM48.53 41.0201H23.37V39.3801C23.37 35.9201 24.6 32.9501 27.06 30.4901C29.52 28.0301 32.48 26.8001 35.95 26.8001C39.42 26.8001 42.38 28.0301 44.84 30.4901C47.3 32.9501 48.53 35.9101 48.53 39.3801V41.0201Z" fill="#B2ADA6"/>
<path d="M67.4601 26.8317L44.162 3.53022C43.0057 2.42449 41.677 1.55208 40.1759 0.933276C38.6747 0.304329 37.1127 0 35.5 0C33.8873 0 32.3253 0.314474 30.8241 0.933276C29.323 1.56222 27.9943 2.42449 26.838 3.53022L3.53986 26.8317C1.18671 29.2359 0 32.127 0 35.4949C0 38.8628 1.17657 41.7641 3.53986 44.1582L26.838 67.4596C29.2419 69.8131 32.1326 71 35.5 71C38.8674 71 41.7683 69.8233 44.162 67.4596L67.4601 44.1582C69.8133 41.754 71 38.8628 71 35.4949C71 32.127 69.8234 29.2257 67.4601 26.8317ZM66.6994 43.2655L43.4013 66.5669C41.2307 68.7378 38.6139 69.8233 35.571 69.8233C32.5281 69.8233 29.9113 68.7378 27.7407 66.5669L4.44257 43.2655C2.22129 41.1352 1.11571 38.5382 1.11571 35.4645C1.11571 32.3908 2.18071 29.7634 4.30057 27.5925L27.5987 4.29104C28.6637 3.27661 29.8707 2.48536 31.24 1.93756C32.6093 1.38977 34.0293 1.10573 35.5 1.10573C36.9707 1.10573 38.4009 1.37963 39.76 1.93756C41.1191 2.4955 42.3363 3.27661 43.4013 4.29104L66.6994 27.5925C68.8294 29.7634 69.8843 32.3806 69.8843 35.4239C69.8843 38.4672 68.8193 41.0844 66.6994 43.2553V43.2655Z" fill="#B2ADA6"/>
</g>
<defs>
<clipPath id="clip0_50_2047">
<rect width="71" height="71" fill="white"/>
</clipPath>
</defs>
</svg>
