<svg width="16" height="16" viewBox="0 0 16 16" fill="none" xmlns="http://www.w3.org/2000/svg">
<path d="M8 0C7.17708 0 6.47135 0.291667 5.88281 0.875C5.29427 1.45833 5 2.16667 5 3H6C6 2.44792 6.19531 1.97656 6.58594 1.58594C6.97656 1.19531 7.44792 1 8 1C8.55208 1 9.02344 1.19531 9.41406 1.58594C9.80469 1.97656 10 2.44792 10 3H11.0156C11.0156 2.16667 10.7214 1.45833 10.1328 0.875C9.54427 0.291667 8.83854 0 8.01562 0C8.01562 0 8.01302 0 8.00781 0C8.0026 0 8 0 8 0ZM0 4.79688V13.8594C0 14.4531 0.208333 14.9583 0.625 15.375C1.04167 15.7917 1.54688 16 2.14062 16H13.8594C14.4531 16 14.9583 15.7917 15.375 15.375C15.7917 14.9583 16 14.4531 16 13.8594V4.79688H0ZM14.9375 10V13.8594C14.9375 14.1615 14.8333 14.4167 14.625 14.625C14.4167 14.8333 14.1615 14.9375 13.8594 14.9375H2.14062C1.83854 14.9375 1.58333 14.8333 1.375 14.625C1.16667 14.4167 1.0625 14.1615 1.0625 13.8594V5.85938H14.9375V10Z" fill="black"/>
</svg>
