<svg width="16" height="14" viewBox="0 0 16 14" fill="none" xmlns="http://www.w3.org/2000/svg">
<path d="M8.96875 1.53125L7.90625 2.59375L6.84375 1.53125C6.47917 1.16667 6.05208 0.880208 5.5625 0.671875C5.07292 0.463542 4.55208 0.359375 4 0.359375C3.44792 0.359375 2.92708 0.463542 2.4375 0.671875C1.95833 0.880208 1.53646 1.16667 1.17188 1.53125C0.807292 1.89583 0.520833 2.31771 0.3125 2.79688C0.104167 3.28646 0 3.80729 0 4.35938C0 4.91146 0.104167 5.43229 0.3125 5.92188C0.520833 6.41146 0.807292 6.83333 1.17188 7.1875L7.90625 13.9375L8.65625 13.1875L1.9375 6.46875C1.67708 6.19792 1.46875 5.88542 1.3125 5.53125C1.15625 5.17708 1.07812 4.79688 1.07812 4.39062C1.07812 3.57812 1.36458 2.88542 1.9375 2.3125C2.51042 1.73958 3.20312 1.45312 4.01562 1.45312C4.42188 1.45312 4.80208 1.53125 5.15625 1.6875C5.51042 1.84375 5.82292 2.05208 6.09375 2.3125L7.15625 3.39062L7.90625 4.125L8.65625 3.375L9.71875 2.3125C9.98958 2.04167 10.3021 1.83073 10.6562 1.67969C11.0104 1.52865 11.3906 1.45312 11.7969 1.45312C12.6094 1.45312 13.3021 1.73958 13.875 2.3125C14.4479 2.88542 14.7344 3.57292 14.7344 4.375C14.7344 4.78125 14.6562 5.16406 14.5 5.52344C14.3438 5.88281 14.1354 6.19271 13.875 6.45312L9.3125 11.0156L10.0625 11.7656L14.625 7.20312C14.9896 6.83854 15.276 6.41406 15.4844 5.92969C15.6927 5.44531 15.7969 4.92708 15.7969 4.375C15.7969 3.82292 15.6927 3.30208 15.4844 2.8125C15.276 2.32292 14.9922 1.89844 14.6328 1.53906C14.2734 1.17969 13.849 0.895833 13.3594 0.6875C12.8698 0.46875 12.349 0.359375 11.7969 0.359375C11.2448 0.359375 10.7266 0.463542 10.2422 0.671875C9.75781 0.880208 9.33333 1.16667 8.96875 1.53125Z" fill="black"/>
</svg>
