<svg width="122" height="22" viewBox="0 0 122 22" fill="none" xmlns="http://www.w3.org/2000/svg">
<path d="M64.8656 0.0441628C64.38 0.0989838 63.854 0.208626 63.2875 0.373089C62.721 0.537552 62.2219 0.74313 61.7903 0.989826C60.5223 1.67509 59.477 2.73039 58.6542 4.15574C57.8314 5.58109 57.3121 7.23943 57.0963 9.13075C57.0154 9.92566 57.0019 10.8439 57.0558 11.8855C57.1098 12.9271 57.2177 13.818 57.3796 14.558C57.8651 16.7783 58.843 18.5531 60.3133 19.8825C61.7835 21.2119 63.5437 21.9178 65.594 22C66.2144 22 66.7944 21.9589 67.334 21.8767C67.8735 21.7944 68.413 21.6574 68.9526 21.4655C69.8698 21.1366 70.7128 20.6089 71.4817 19.8825C72.2505 19.1562 72.8777 18.2996 73.3633 17.3128C73.9837 16.0245 74.4019 14.558 74.6177 12.9134C74.8335 11.2688 74.82 9.67896 74.5772 8.14398C74.1186 5.51256 73.134 3.48418 71.6233 2.05884C70.1126 0.633488 68.1837 -0.051775 65.8368 0.00304604C65.6479 0.00304604 65.4591 0.00304604 65.2703 0.00304604C65.0814 0.00304604 64.9465 0.0167522 64.8656 0.0441628ZM67.4958 1.89437C67.7386 1.94919 68.0354 2.05198 68.3861 2.20274C68.7368 2.3535 69.0335 2.4974 69.2763 2.63446C70.5712 3.48418 71.5154 4.90953 72.1089 6.9105C72.7024 8.91147 72.8237 11.0495 72.4731 13.3246C72.1763 15.1063 71.6165 16.5659 70.7937 17.7034C69.971 18.8409 68.9256 19.6016 67.6577 19.9853C67.28 20.0676 66.7742 20.1224 66.1403 20.1498C65.5063 20.1772 64.987 20.1498 64.5824 20.0676C63.1256 19.766 61.9454 19.0191 61.0416 17.8267C60.1379 16.6344 59.5377 15.024 59.241 12.9956C59.214 12.8038 59.1937 12.5228 59.1803 12.1528C59.1668 11.7827 59.16 11.3921 59.16 10.981C59.16 9.58303 59.3151 8.31529 59.6254 7.17775C59.9356 6.04022 60.401 5.03288 61.0214 4.15574C61.453 3.60753 61.9521 3.1347 62.5186 2.73725C63.0851 2.33979 63.6786 2.07254 64.2991 1.93549C64.7577 1.82585 65.2837 1.76417 65.8772 1.75047C66.4707 1.73676 67.0103 1.78473 67.4958 1.89437ZM0 10.9398V21.4655H1.94233V12.2144H4.37023H6.79814L9.79256 16.4905C10.6288 17.6691 11.364 18.7107 11.9979 19.6153C12.6319 20.5198 12.9758 21.0132 13.0298 21.0955L13.2726 21.4655H14.4865C14.9991 21.4655 15.3363 21.4586 15.4981 21.4449C15.66 21.4312 15.7274 21.4107 15.7005 21.3833C15.6735 21.3559 15.5386 21.164 15.2958 20.8076C15.053 20.4513 14.7563 20.0401 14.4056 19.5742C12.5172 16.9702 11.1684 15.0994 10.3591 13.9619C9.54977 12.8243 9.14512 12.2418 9.14512 12.2144C9.14512 12.2144 9.17884 12.2076 9.24628 12.1939C9.31372 12.1802 9.38791 12.1596 9.46884 12.1322C10.1972 12.1048 10.8986 11.9746 11.573 11.7416C12.2474 11.5086 12.8274 11.2002 13.313 10.8165C14.1493 10.1312 14.7091 9.19243 14.9923 8.00007C15.2756 6.80771 15.2149 5.5948 14.8102 4.36132C14.6754 3.92275 14.5135 3.53901 14.3247 3.21008C14.1358 2.88115 13.8795 2.56593 13.5558 2.26442C13.0972 1.79844 12.5914 1.43525 12.0384 1.17485C11.4854 0.914446 10.8312 0.729425 10.0758 0.619783C9.91396 0.592373 9.32047 0.564962 8.29535 0.537552C7.27024 0.510141 6.09675 0.496435 4.77489 0.496435L0 0.45532V10.9398ZM10.4805 2.46999C11.2088 2.68928 11.7956 3.04562 12.2407 3.53901C12.6858 4.03239 12.9758 4.63543 13.1107 5.3481C13.3265 6.33488 13.2591 7.25313 12.9084 8.10286C12.5577 8.95259 12.0047 9.55562 11.2493 9.91195C10.7637 10.1312 10.2512 10.2614 9.71163 10.3026C9.1721 10.3437 7.85024 10.3779 5.74605 10.4053L1.94233 10.4465V2.30553L6.0293 2.34665C7.80977 2.34665 8.95628 2.3535 9.46884 2.3672C9.9814 2.38091 10.3186 2.41517 10.4805 2.46999ZM22.3368 10.981V21.4655H24.2791V0.45532L23.3079 0.496435H22.3368V10.981ZM32.1698 10.981V21.4655H34.1526V12.6256C34.1526 9.91195 34.1593 7.77393 34.1728 6.21153C34.1863 4.64913 34.2065 3.88164 34.2335 3.90905C34.2335 3.96387 34.3347 4.24483 34.537 4.75192C34.7393 5.25902 34.9619 5.8552 35.2047 6.54046C35.4744 7.22572 35.9263 8.42493 36.5602 10.1381C37.1942 11.8512 37.8349 13.5576 38.4823 15.257L40.8293 21.4655H42.367L45.6447 12.7078C46.5619 10.2957 47.3442 8.23991 47.9916 6.54046C48.6391 4.84101 48.9628 3.99128 48.9628 3.99128C48.9628 3.99128 48.9696 4.84786 48.983 6.56102C48.9965 8.27417 49.0033 10.3231 49.0033 12.7078V21.4244L51.0265 21.4655L50.9861 10.981V0.496435H48.4772L45.6042 7.85616C44.8219 9.88454 44.0935 11.769 43.4191 13.5096C42.7447 15.2502 42.34 16.3123 42.2051 16.6961C42.0433 17.1072 41.9016 17.4567 41.7802 17.7445C41.6589 18.0323 41.5847 18.1625 41.5577 18.1351C41.5577 18.1077 41.2205 17.2374 40.5461 15.5243C39.8716 13.8111 39.0623 11.7485 38.1182 9.33633C37.2009 6.92421 36.4051 4.85471 35.7307 3.12785C35.0563 1.40098 34.7056 0.537552 34.6786 0.537552C34.6516 0.510141 34.5168 0.496435 34.274 0.496435C34.0312 0.496435 33.7344 0.496435 33.3837 0.496435H32.1698V10.981ZM77.8144 0.537552C77.8144 0.564962 78.1112 1.59286 78.7047 3.62124C79.2982 5.64962 79.9996 8.08915 80.8089 10.9398C81.6182 13.7631 82.3196 16.189 82.9131 18.2173C83.5065 20.2457 83.8033 21.2873 83.8033 21.3421C83.8303 21.397 83.891 21.4312 83.9854 21.4449C84.0798 21.4586 84.3024 21.4518 84.6531 21.4244H85.4624L87.8903 13.0368C88.5647 10.7343 89.1379 8.76756 89.61 7.13664C90.0821 5.50571 90.3317 4.69025 90.3586 4.69025C90.3586 4.69025 90.6014 5.50571 91.087 7.13664C91.5726 8.76756 92.1526 10.7343 92.827 13.0368L95.2145 21.4244L96.8331 21.4655L99.8275 11.1454C100.664 8.29473 101.379 5.84149 101.972 3.7857C102.566 1.72991 102.862 0.674604 102.862 0.619783L102.903 0.45532H101.891C101.514 0.45532 101.244 0.462172 101.082 0.475878C100.92 0.489584 100.826 0.523846 100.799 0.578667C100.772 0.578667 100.529 1.42154 100.07 3.10729C99.6117 4.79304 99.0586 6.80086 98.4112 9.13075C97.7638 11.4881 97.2107 13.5027 96.7521 15.1748C96.2935 16.8468 96.0507 17.6828 96.0238 17.6828C96.0238 17.7103 95.7877 16.9153 95.3156 15.2981C94.8435 13.6809 94.2703 11.7348 93.5958 9.45968C92.9484 7.1572 92.3819 5.16308 91.8963 3.47733C91.4107 1.79158 91.1544 0.907593 91.1275 0.825361L91.0465 0.45532H90.3991C90.1833 0.45532 90.0147 0.462172 89.8933 0.475878C89.7719 0.489584 89.6977 0.523846 89.6707 0.578667C89.6438 0.578667 89.4954 1.05835 89.2256 2.01772C88.9558 2.97709 88.5984 4.21741 88.1533 5.7387C87.7082 7.25998 87.2158 8.96629 86.6763 10.8576C86.1368 12.7215 85.6107 14.5855 85.0982 16.4494C84.9903 16.8057 84.8958 17.1072 84.8149 17.3539C84.734 17.6006 84.6935 17.7103 84.6935 17.6828C84.6665 17.6828 84.4238 16.8468 83.9651 15.1748C83.5065 13.5027 82.9535 11.5018 82.3061 9.17187C81.6586 6.84197 81.0989 4.84101 80.6268 3.16896C80.1547 1.49692 79.9186 0.633488 79.9186 0.578667C79.8917 0.523846 79.8175 0.489584 79.6961 0.475878C79.5747 0.462172 79.2847 0.45532 78.8261 0.45532C78.4754 0.45532 78.2191 0.462172 78.0572 0.475878C77.8954 0.489584 77.8144 0.510141 77.8144 0.537552ZM111.724 0.578667C111.67 0.688309 111.394 1.36672 110.895 2.6139C110.396 3.86108 109.013 7.30795 106.747 12.9545C106.073 14.5717 105.459 16.0862 104.906 17.4978C104.353 18.9095 103.995 19.7935 103.834 20.1498L103.307 21.4655H105.533L105.735 20.8899C105.789 20.7528 105.931 20.3759 106.16 19.7592C106.39 19.1425 106.639 18.464 106.909 17.724L107.88 15.1337L117.227 15.1748L118.401 18.2996L119.574 21.4655H121.8L121.638 21.1366C121.611 21.0269 121.368 20.4102 120.91 19.2864C120.451 18.1625 119.925 16.8468 119.332 15.3392C118.738 13.8317 118.044 12.0979 117.248 10.1381C116.452 8.17824 115.798 6.55416 115.285 5.26587C114.773 4.00498 114.327 2.90856 113.95 1.9766C113.572 1.04465 113.383 0.578667 113.383 0.578667C113.356 0.523846 113.275 0.489584 113.141 0.475878C113.006 0.462172 112.803 0.45532 112.534 0.45532C112.21 0.45532 112.001 0.462172 111.906 0.475878C111.812 0.489584 111.751 0.523846 111.724 0.578667ZM114.516 8.18509C115.056 9.61044 115.514 10.8302 115.892 11.8444C116.27 12.8586 116.459 13.3794 116.459 13.4068C116.486 13.4342 116.243 13.4548 115.73 13.4685C115.218 13.4822 114.166 13.489 112.574 13.489C111.495 13.489 110.571 13.489 109.802 13.489C109.033 13.489 108.649 13.4753 108.649 13.4479C108.622 13.4479 108.811 12.8997 109.215 11.8033C109.62 10.7343 110.065 9.55562 110.551 8.26732C111.036 6.97903 111.495 5.80037 111.927 4.73136C112.331 3.66235 112.534 3.11414 112.534 3.08673C112.561 3.08673 112.763 3.58697 113.141 4.58746C113.518 5.58794 113.977 6.78715 114.516 8.18509Z" fill="black"/>
</svg>
