<svg width="40" height="45" viewBox="0 0 40 45" fill="none" xmlns="http://www.w3.org/2000/svg">
<path d="M23.1019 40.5785C21.9444 41.7359 20.9722 42.06 20.0463 42.06C19.1204 42.06 18.1481 41.7359 16.9907 40.5785L4.16667 27.7544C3.00926 26.597 2.68519 25.6248 2.68519 24.6988C2.68519 23.7266 3.00926 22.7081 4.12037 21.5507C4.86111 20.7637 7.08333 18.3562 7.08333 18.3562L5.60185 25.9488L7.82407 28.1248L9.49074 19.1896C10.4167 14.3285 11.2037 9.46736 11.8056 4.55995C11.8056 4.42106 11.8519 4.32847 11.8519 4.18958C12.7315 9.60625 13.75 15.0229 14.9074 20.3933L17.7778 33.5414C18.1019 34.9303 18.9815 35.6248 19.9537 35.6248C20.8796 35.6248 21.8056 34.9303 22.1296 33.5414L25 20.3933C26.1574 15.0229 27.1759 9.60625 28.0556 4.18958C28.0556 4.28217 28.1019 4.42106 28.1019 4.55995C28.75 9.46736 29.537 14.3285 30.4167 19.1896L34.5833 41.2266H37.2685L35.463 31.8748L37.7778 29.5599C39.2593 28.0785 39.9537 26.5044 39.9537 24.7914C39.9537 23.0322 39.2593 21.5044 37.7778 20.0229L32.1296 14.1433L29.4444 0.254395H26.7593L25.1389 7.7081L24.8148 7.38402C23.3333 5.90254 21.7593 5.2081 20.0463 5.2081C18.287 5.2081 16.7593 5.90254 15.2778 7.38402L14.9537 7.7081L13.287 0.254395H10.6019L7.91667 14.1433L2.17593 19.884C0.694444 21.3655 0 22.9396 0 24.6988C0 26.4581 0.694444 27.9859 2.17593 29.4674L4.49074 31.7822L2.63889 41.134H5.37037L6.75926 34.0507L15.2315 42.5229C16.713 44.0044 18.287 44.6988 20 44.6988C21.7593 44.6988 23.287 44.0044 24.7685 42.5229L31.25 36.0414L30.6019 32.9859L23.1019 40.5785ZM35.9259 21.4581C36.9444 22.5229 37.4074 23.4951 37.4074 24.6525C37.4074 25.8099 36.9444 26.7359 35.9259 27.8007L34.9074 28.8192L32.8241 18.0785C32.7778 18.0785 35.1852 20.6711 35.9259 21.4581ZM15.463 10.3933C15.8796 9.97662 16.3426 9.55995 16.8519 9.09699C18.1019 8.03217 18.8889 7.6618 20 7.6618C21.1111 7.6618 21.8981 8.03217 23.1481 9.09699C23.6574 9.55995 24.1204 9.97662 24.537 10.3933L20.787 27.7081C20.6019 28.6803 20 31.8285 20 31.8285C20 31.8285 19.3981 28.6803 19.213 27.7081L15.463 10.3933Z" fill="white"/>
</svg>
