<svg width="16" height="16" viewBox="0 0 16 16" fill="none" xmlns="http://www.w3.org/2000/svg">
<path d="M6 1.0625C6.67708 1.0625 7.31771 1.19271 7.92188 1.45312C8.51562 1.71354 9.03646 2.06771 9.48438 2.51562C9.93229 2.96354 10.2865 3.48438 10.5469 4.07812C10.8073 4.68229 10.9375 5.32292 10.9375 6C10.9375 6.67708 10.8073 7.31771 10.5469 7.92188C10.2865 8.51562 9.93229 9.03646 9.48438 9.48438C9.03646 9.93229 8.51562 10.2865 7.92188 10.5469C7.31771 10.8073 6.67708 10.9375 6 10.9375C5.32292 10.9375 4.68229 10.8073 4.07812 10.5469C3.48438 10.2865 2.96354 9.93229 2.51562 9.48438C2.06771 9.03646 1.71354 8.51562 1.45312 7.92188C1.19271 7.31771 1.0625 6.67708 1.0625 6C1.0625 5.32292 1.19271 4.68229 1.45312 4.07812C1.71354 3.48438 2.06771 2.96354 2.51562 2.51562C2.96354 2.06771 3.48438 1.71354 4.07812 1.45312C4.68229 1.19271 5.32292 1.0625 6 1.0625ZM6 0C5.16667 0 4.39062 0.15625 3.67188 0.46875C2.94271 0.78125 2.30469 1.21094 1.75781 1.75781C1.21094 2.30469 0.78125 2.94271 0.46875 3.67188C0.15625 4.39062 0 5.16667 0 6C0 6.83333 0.15625 7.60938 0.46875 8.32812C0.78125 9.05729 1.21094 9.69531 1.75781 10.2422C2.30469 10.7891 2.94271 11.2188 3.67188 11.5312C4.39062 11.8438 5.16667 12 6 12C6.83333 12 7.60938 11.8438 8.32812 11.5312C9.05729 11.2188 9.69531 10.7891 10.2422 10.2422C10.7891 9.69531 11.2188 9.05729 11.5312 8.32812C11.8438 7.60938 12 6.83333 12 6C12 5.16667 11.8438 4.39062 11.5312 3.67188C11.2188 2.94271 10.7891 2.30469 10.2422 1.75781C9.69531 1.21094 9.05729 0.78125 8.32812 0.46875C7.60938 0.15625 6.83333 0 6 0ZM11.3594 12.1094L12.1094 11.3594L16 15.25L15.25 16L11.3594 12.1094Z" fill="black"/>
</svg>
