<svg width="13" height="12" viewBox="0 0 13 12" fill="none" xmlns="http://www.w3.org/2000/svg">
<path d="M10.7422 7.75781C10.4141 7.42969 10.0586 7.14648 9.67578 6.9082C9.29297 6.66992 8.88672 6.47656 8.45703 6.32812C8.91797 6.01562 9.28516 5.60938 9.55859 5.10938C9.83203 4.60938 9.96875 4.0625 9.96875 3.46875C9.96875 2.99219 9.87891 2.54297 9.69922 2.12109C9.51172 1.69922 9.26172 1.33203 8.94922 1.01953C8.63672 0.707031 8.26953 0.457031 7.84766 0.269531C7.42578 0.0898438 6.97656 0 6.5 0C6.02344 0 5.57422 0.0898438 5.15234 0.269531C4.73047 0.457031 4.36328 0.707031 4.05078 1.01953C3.73828 1.33203 3.48828 1.69922 3.30078 2.12109C3.12109 2.54297 3.03125 2.99219 3.03125 3.46875C3.03125 4.0625 3.16797 4.60938 3.44141 5.10938C3.71484 5.60938 4.08203 6.01562 4.54297 6.32812C4.11328 6.47656 3.70703 6.66992 3.32422 6.9082C2.94141 7.14648 2.58594 7.42969 2.25781 7.75781C1.97656 8.03906 1.72656 8.34375 1.50781 8.67188C1.28906 9 1.10547 9.34375 0.957031 9.70312C0.808594 10.0625 0.695312 10.4336 0.617188 10.8164C0.539062 11.207 0.5 11.6016 0.5 12H1.4375C1.4375 11.3047 1.57031 10.6484 1.83594 10.0312C2.10156 9.41406 2.46289 8.87695 2.91992 8.41992C3.37695 7.96289 3.91406 7.60156 4.53125 7.33594C5.14844 7.07031 5.80469 6.9375 6.5 6.9375C7.19531 6.9375 7.85156 7.07031 8.46875 7.33594C9.08594 7.60156 9.62305 7.96289 10.0801 8.41992C10.5371 8.87695 10.8984 9.41406 11.1641 10.0312C11.4297 10.6484 11.5625 11.3047 11.5625 12H12.5C12.5 11.6016 12.4609 11.207 12.3828 10.8164C12.3047 10.4336 12.1914 10.0625 12.043 9.70312C11.8945 9.34375 11.7109 9 11.4922 8.67188C11.2734 8.34375 11.0234 8.03906 10.7422 7.75781ZM6.5 6C6.14844 6 5.82031 5.93359 5.51562 5.80078C5.21094 5.66797 4.94336 5.48633 4.71289 5.25586C4.48242 5.02539 4.30078 4.75781 4.16797 4.45312C4.03516 4.14844 3.96875 3.82031 3.96875 3.46875C3.96875 3.11719 4.03516 2.78906 4.16797 2.48438C4.30078 2.17969 4.48242 1.91211 4.71289 1.68164C4.94336 1.45117 5.21094 1.26953 5.51562 1.13672C5.82031 1.00391 6.14844 0.9375 6.5 0.9375C6.85156 0.9375 7.17969 1.00391 7.48438 1.13672C7.78906 1.26953 8.05664 1.45117 8.28711 1.68164C8.51758 1.91211 8.69922 2.17969 8.83203 2.48438C8.96484 2.78906 9.03125 3.11719 9.03125 3.46875C9.03125 3.82031 8.96484 4.14844 8.83203 4.45312C8.69922 4.75781 8.51758 5.02539 8.28711 5.25586C8.05664 5.48633 7.78906 5.66797 7.48438 5.80078C7.17969 5.93359 6.85156 6 6.5 6Z" fill="black"/>
</svg>
